<?xml version="1.0" encoding="UTF-8"?>
<svg id="Layer_2" data-name="Layer 2" xmlns="http://www.w3.org/2000/svg" viewBox="0 0 582 582">
  <defs>
    <style>
      .cls-1 {
        fill: none;
        stroke: #000;
        stroke-miterlimit: 10;
        stroke-width: 70px;
      }
    </style>
  </defs>
  <g id="Layer_1-2" data-name="Layer 1">
    <g>
      <g>
        <path class="cls-1" d="M35,291c0-141.38,114.62-256,256-256s256,114.62,256,256-114.62,256-256,256c-56.68,0-109.06-18.42-151.48-49.61"/>
        <path class="cls-1" d="M171.06,175.27s0,64.86,0,168.88q0,43.52-44.49,43.52c-68.56,0-91.56-61.12-91.56-96.68"/>
      </g>
      <path class="cls-1" d="M232.75,291c0-34.26,52.08-96.92,102.47-101.33,65.11-5.7,95.59,50.51,95.59,101.33"/>
      <path class="cls-1" d="M232.75,291c0,34.26,52.08,96.92,102.47,101.33,65.11,5.7,95.59-50.51,95.59-101.33"/>
    </g>
  </g>
</svg>